<?xml version="1.0" encoding="UTF-8"?>
<!DOCTYPE svg PUBLIC "-//W3C//DTD SVG 1.1//EN" "http://www.w3.org/Graphics/SVG/1.1/DTD/svg11.dtd">
<!-- Creator: CorelDRAW X8 -->
<svg xmlns="http://www.w3.org/2000/svg" xml:space="preserve" width="100%" height="100%" version="1.1" style="shape-rendering:geometricPrecision; text-rendering:geometricPrecision; image-rendering:optimizeQuality; fill-rule:evenodd; clip-rule:evenodd"
viewBox="0 0 370028 138802"
 xmlns:xlink="http://www.w3.org/1999/xlink">
 <defs>
  <style type="text/css">
   <![CDATA[
    .str0 {stroke:#4FC4D2;stroke-width:2777.95}
    .fil0 {fill:#4FC4D2;fill-rule:nonzero}
   ]]>
  </style>
 </defs>
 <g id="Layer_x0020_1">
  <metadata id="CorelCorpID_0Corel-Layer"/>
  <path class="fil0 str0" d="M49358 103306c16306,0 30846,-8154 39815,-22014 2446,-3126 815,-7338 -2446,-8969 -2310,-2446 -7338,-1631 -8969,1631 -6386,9783 -17121,15491 -28400,15491 -18617,0 -34108,-14676 -34108,-33429 0,-18616 15491,-33972 34108,-33972 12094,0 22829,6387 29216,16986 1630,3262 5843,4077 8969,2446 3261,-1495 4891,-5707 2445,-9784 -8153,-14676 -23508,-23509 -40630,-23509 -26091,0 -47969,21063 -47969,47833 0,26091 21878,47290 47969,47290zm86902 -68081c-18752,0 -34108,15197 -34108,34040l0 27246c0,3669 2990,6795 6795,6795 3669,0 6659,-3126 6659,-6795l0 -27246c0,-11369 9240,-20587 20654,-20587 3805,0 6795,-3125 6795,-6794 0,-3669 -2990,-6659 -6795,-6659zm25346 68081c3669,0 6658,-2990 6658,-6795l0 -54672c0,-3669 -2989,-6659 -6658,-6659 -3805,0 -6795,2990 -6795,6659l0 54672c0,3805 2990,6795 6795,6795zm0 -81692c1766,0 3533,-680 4756,-1880 1223,-1223 1902,-2990 1902,-4756 0,-1767 -679,-3533 -1902,-4756 -1223,-1223 -2990,-2039 -4756,-2039 -1767,0 -3533,816 -4756,2039 -1223,1223 -2039,2989 -2039,4756 0,1766 816,3533 2039,4756 1223,1200 2989,1880 4756,1880zm52659 82235c18888,0 34108,-15219 34108,-34108 0,-18752 -15220,-34108 -34108,-34108 -18753,0 -34108,15356 -34108,34108 0,0 0,136 0,136l0 60878c0,3669 2989,6658 6794,6658 3669,0 6658,-2989 6658,-6658l0 -33836c5708,4348 12910,6930 20656,6930zm0 -54763c11415,0 20655,9376 20655,20655 0,11415 -9240,20655 -20655,20655 -11415,0 -20656,-9240 -20656,-20519l0 -136c0,0 0,0 0,0 0,-11415 9241,-20655 20656,-20655zm76031 -13861l-9648 0 0 -27177c0,-3669 -2989,-6659 -6794,-6659 -3669,0 -6658,2990 -6658,6659l0 27177 -9785 0c-3668,0 -6658,2990 -6658,6659 0,3669 2990,6794 6658,6794l9785 0 0 47833c0,3669 2989,6795 6658,6795 3805,0 6794,-3126 6794,-6795l0 -47833 9648 0c3806,0 6795,-3125 6795,-6794 0,-3669 -2989,-6659 -6795,-6659l0 0zm44234 68081c18889,0 34109,-15356 34109,-34176 0,-18957 -15220,-34176 -34109,-34176 -18752,0 -34108,15219 -34108,34176 0,18820 15356,34176 34108,34176zm0 -54899c11415,0 20655,9263 20655,20723 0,11324 -9240,20722 -20655,20722 -11414,0 -20654,-9398 -20654,-20722 0,-11460 9240,-20723 20654,-20723z"/>
 </g>
</svg>
